<svg xmlns="http://www.w3.org/2000/svg" xmlns:xlink="http://www.w3.org/1999/xlink" viewBox="0 0 144.29 96.51"><defs><style>.cls-1,.cls-2{fill:none;}.cls-2{clip-rule:evenodd;}.cls-3{clip-path:url(#clip-path);}.cls-4{fill:#231f20;}.cls-5{clip-path:url(#clip-path-2);}.cls-6{fill:#8390c7;}.cls-7{clip-path:url(#clip-path-3);}.cls-8{fill:#cada2a;}.cls-9{clip-path:url(#clip-path-4);}.cls-10{fill:#f4811f;}.cls-11{clip-path:url(#clip-path-5);}.cls-12{fill:#fefefe;}.cls-13{clip-path:url(#clip-path-6);}.cls-14{clip-path:url(#clip-path-7);}.cls-15{clip-path:url(#clip-path-8);}.cls-16{clip-path:url(#clip-path-9);}.cls-17{clip-path:url(#clip-path-10);}.cls-18{clip-path:url(#clip-path-11);}.cls-19{clip-path:url(#clip-path-12);}.cls-20{clip-path:url(#clip-path-13);}.cls-21{clip-path:url(#clip-path-14);}.cls-22{clip-path:url(#clip-path-15);}.cls-23{isolation:isolate;}.cls-24{clip-path:url(#clip-path-16);}.cls-25{clip-path:url(#clip-path-17);}.cls-26{clip-path:url(#clip-path-19);}.cls-27{clip-path:url(#clip-path-20);}.cls-28{clip-path:url(#clip-path-21);}.cls-29{clip-path:url(#clip-path-22);}.cls-30{clip-path:url(#clip-path-23);}.cls-31{clip-path:url(#clip-path-24);}.cls-32{clip-path:url(#clip-path-25);}.cls-33{clip-path:url(#clip-path-26);}.cls-34{clip-path:url(#clip-path-27);}.cls-35{clip-path:url(#clip-path-28);}.cls-36{clip-path:url(#clip-path-29);}.cls-37{clip-path:url(#clip-path-30);}.cls-38{clip-path:url(#clip-path-31);}.cls-39{clip-path:url(#clip-path-32);}.cls-40{clip-path:url(#clip-path-33);}.cls-41{clip-path:url(#clip-path-34);}</style><clipPath id="clip-path"><rect class="cls-1" x="5" y="52.41" width="134.29" height="27.18"/></clipPath><clipPath id="clip-path-2"><rect class="cls-1" x="5" y="5" width="44.79" height="47.41"/></clipPath><clipPath id="clip-path-3"><rect class="cls-1" x="49.79" y="5" width="44.79" height="47.41"/></clipPath><clipPath id="clip-path-4"><rect class="cls-1" x="94.5" y="5" width="44.79" height="47.41"/></clipPath><clipPath id="clip-path-5"><path class="cls-2" d="M37.41,40.25l-7.3-20.37H25.65L18.5,40.25h4l1.42-4.16h7.73L33,40.25ZM30.59,33H24.9l1.85-5.19c.4-1.18.73-2.35,1-3.41h0a25,25,0,0,0,.94,3.26Z"/></clipPath><clipPath id="clip-path-6"><path class="cls-2" d="M80.57,40.25,75.66,33.4c-.52-.69-1.09-1.48-1.67-2.23,3.09-.48,5.21-2.65,5.21-5.67,0-4.17-2.91-5.73-7.42-5.73-2.36,0-4.27,0-5.88.12V40.25h3.94V31.84H70l5.7,8.42ZM75.08,25.89c0,1.9-1.46,3.11-3.82,3.11-.61,0-1.15,0-1.43-.06V23.05A11.25,11.25,0,0,1,71.39,23C73.87,23,75.08,23.93,75.08,25.89Z"/></clipPath><clipPath id="clip-path-7"><polygon class="cls-2" points="118.76 23.23 118.76 40.26 114.82 40.26 114.82 23.23 109.52 23.23 109.52 19.89 124.06 19.89 124.06 23.23 118.76 23.23"/></clipPath><clipPath id="clip-path-8"><path class="cls-2" d="M27.34,63.58a7.33,7.33,0,0,0-2.62-.5,3.16,3.16,0,0,0-3.35,3.42c0,2.08,1.14,3.31,3.15,3.31a4.23,4.23,0,0,0,1.26-.17V66.21h1.9v4.69a9.35,9.35,0,0,1-3.38.61c-3.13,0-5-1.84-5-4.84s2.11-5.29,5.53-5.29a10.1,10.1,0,0,1,2.8.42Z"/></clipPath><clipPath id="clip-path-9"><path class="cls-2" d="M46.13,71.37,42.6,61.53H40.45L37,71.37h1.92l.69-2h3.73l.69,2Zm-3.29-3.51H40.08L41,65.35c.19-.57.35-1.14.47-1.65h0a12,12,0,0,0,.45,1.57Z"/></clipPath><clipPath id="clip-path-10"><polygon class="cls-2" points="56.06 71.37 56.06 61.53 57.97 61.53 57.97 69.71 61.17 69.71 61.17 71.37 56.06 71.37"/></clipPath><clipPath id="clip-path-11"><polygon class="cls-2" points="71.02 71.37 71.02 61.53 72.93 61.53 72.93 69.71 76.13 69.71 76.13 71.37 71.02 71.37"/></clipPath><clipPath id="clip-path-12"><polygon class="cls-2" points="86.43 71.37 86.43 61.53 91.8 61.53 91.8 63.12 88.33 63.12 88.33 65.54 91.62 65.54 91.62 67.09 88.33 67.09 88.33 69.75 91.8 69.75 91.8 71.37 86.43 71.37"/></clipPath><clipPath id="clip-path-13"><path class="cls-2" d="M109.63,71.37l-2.37-3.31-.8-1.08A2.75,2.75,0,0,0,109,64.25c0-2-1.41-2.77-3.59-2.77-1.14,0-2.06,0-2.84.06v9.84h1.9V67.31h.07l2.75,4.07ZM107,64.44c0,.92-.7,1.5-1.84,1.5-.29,0-.56,0-.69,0V63.06a5.78,5.78,0,0,1,.75,0C106.39,63,107,63.49,107,64.44Z"/></clipPath><clipPath id="clip-path-14"><path class="cls-2" d="M122.43,67.89v3.49h-1.9V67.91l-3.09-6.37h2.08l1.3,2.83c.27.58.48,1.12.68,1.63h0c.21-.57.5-1.19.79-1.82l1.24-2.64h2Z"/></clipPath><clipPath id="clip-path-15"><rect class="cls-1" x="13.85" y="86.78" width="4.46" height="4.73"/></clipPath><clipPath id="clip-path-16"><rect class="cls-1" x="13.29" y="86.27" width="6" height="6"/></clipPath><clipPath id="clip-path-17"><path class="cls-2" d="M16.17,86.78a2.3,2.3,0,0,0-2.32,2.43c0,1.44.7,2.3,2.14,2.3a2.3,2.3,0,0,0,2.32-2.44,2,2,0,0,0-2.14-2.29M16,90.36c-.61,0-.86-.47-.86-1.25s.44-1.19.89-1.19c.6,0,.89.41.89,1.2,0,1-.53,1.23-.92,1.23"/></clipPath><clipPath id="clip-path-19"><polygon class="cls-2" points="23 91.42 23 89.72 24.27 89.72 24.27 88.69 23 88.69 23 87.95 24.34 87.95 24.34 86.87 21.74 86.87 21.74 91.42 23 91.42"/></clipPath><clipPath id="clip-path-20"><path class="cls-2" d="M34.58,86.8a2.42,2.42,0,0,0-2.69,2.47,2.1,2.1,0,0,0,2.35,2.23,4.14,4.14,0,0,0,1.64-.32V88.94H34.62v1.38a.93.93,0,0,1-.26,0,1,1,0,0,1-1.12-1.17,1.16,1.16,0,0,1,1.27-1.25,3.35,3.35,0,0,1,1.21.22L35.92,87a4.85,4.85,0,0,0-1.34-.2"/></clipPath><clipPath id="clip-path-21"><path class="cls-2" d="M41.06,86.84c-.58,0-1.14,0-1.56,0v4.55h1.26V89.76h0l.86,1.66h1.53L42.37,90c-.1-.18-.21-.34-.33-.52a1.3,1.3,0,0,0,.83-1.25c0-1-.65-1.42-1.81-1.42m-.1,2h-.21v-1H41c.41,0,.56.22.56.48a.51.51,0,0,1-.58.52"/></clipPath><clipPath id="clip-path-22"><polygon class="cls-2" points="49.09 91.42 49.09 90.33 47.68 90.33 47.68 89.6 49.02 89.6 49.02 88.58 47.68 88.58 47.68 87.94 49.09 87.94 49.09 86.87 46.43 86.87 46.43 91.42 49.09 91.42"/></clipPath><clipPath id="clip-path-23"><path class="cls-2" d="M55.17,86.87H53.73l-1.49,4.55h1.24l.23-.74h1.41l.24.74h1.37ZM54,89.7l.16-.5a6,6,0,0,0,.22-.86h0a5.7,5.7,0,0,0,.21.79l.18.57Z"/></clipPath><clipPath id="clip-path-24"><polygon class="cls-2" points="60.97 91.42 60.97 87.95 61.96 87.95 61.96 86.87 58.73 86.87 58.73 87.95 59.71 87.95 59.71 91.42 60.97 91.42"/></clipPath><clipPath id="clip-path-25"><polygon class="cls-2" points="67.81 91.42 67.81 90.33 66.4 90.33 66.4 89.6 67.74 89.6 67.74 88.58 66.4 88.58 66.4 87.94 67.81 87.94 67.81 86.87 65.14 86.87 65.14 91.42 67.81 91.42"/></clipPath><clipPath id="clip-path-26"><path class="cls-2" d="M72.92,86.84c-.57,0-1.14,0-1.56,0v4.55h1.26V89.76h0l.86,1.66H75L74.23,90c-.1-.18-.21-.34-.33-.52a1.3,1.3,0,0,0,.83-1.25c0-1-.65-1.42-1.81-1.42m-.1,2h-.21v-1h.24c.41,0,.55.22.55.48a.51.51,0,0,1-.58.52"/></clipPath><clipPath id="clip-path-27"><path class="cls-2" d="M86.59,86.87H85.3l-.68,2.21a7.21,7.21,0,0,0-.22.88h0c-.07-.31-.15-.57-.22-.81l-.7-2.28H82.12l1.5,4.55H85.1Z"/></clipPath><clipPath id="clip-path-28"><rect class="cls-1" x="89.82" y="86.87" width="1.26" height="4.55"/></clipPath><clipPath id="clip-path-29"><path class="cls-2" d="M96.91,86.84a2.24,2.24,0,0,0-2.35,2.49,2,2,0,0,0,2.16,2.15,3.72,3.72,0,0,0,1.08-.15l-.15-1.12a2.07,2.07,0,0,1-.69.13c-.71,0-1-.43-1-1.21s.37-1.14,1-1.14a2.77,2.77,0,0,1,.74.1l.14-1.13a3.68,3.68,0,0,0-.88-.11"/></clipPath><clipPath id="clip-path-30"><polygon class="cls-2" points="102.9 91.42 102.9 87.95 103.89 87.95 103.89 86.87 100.65 86.87 100.65 87.95 101.64 87.95 101.64 91.42 102.9 91.42"/></clipPath><clipPath id="clip-path-31"><path class="cls-2" d="M109.07,86.68a2.3,2.3,0,0,0-2.32,2.43c0,1.44.7,2.3,2.14,2.3A2.3,2.3,0,0,0,111.2,89a2,2,0,0,0-2.14-2.29m-.12,3.58c-.61,0-.86-.47-.86-1.25s.44-1.19.89-1.19c.6,0,.89.41.89,1.2,0,1-.53,1.23-.92,1.23"/></clipPath><clipPath id="clip-path-32"><path class="cls-2" d="M116.2,86.74c-.58,0-1.14,0-1.56,0v4.55h1.26V89.67h0l.86,1.66h1.53l-.82-1.39c-.1-.18-.21-.34-.33-.52a1.3,1.3,0,0,0,.83-1.25c0-1-.65-1.42-1.81-1.42m-.1,2h-.21v-1h.24c.41,0,.56.22.56.48a.51.51,0,0,1-.58.52"/></clipPath><clipPath id="clip-path-33"><rect class="cls-1" x="121.57" y="86.78" width="1.26" height="4.55"/></clipPath><clipPath id="clip-path-34"><path class="cls-2" d="M129,86.78h-1.44L126,91.32h1.24l.23-.74h1.41l.24.74h1.37Zm-1.15,2.82.16-.5a6,6,0,0,0,.22-.86h0a5.92,5.92,0,0,0,.21.79l.18.57Z"/></clipPath></defs><title>Asset 2</title><g id="Layer_2" data-name="Layer 2"><g id="Layer_1-2" data-name="Layer 1"><g class="cls-3"><rect class="cls-4" y="47.41" width="144.29" height="37.18"/></g><g class="cls-5"><rect class="cls-6" width="54.79" height="57.41"/></g><g class="cls-7"><rect class="cls-8" x="44.79" width="54.79" height="57.41"/></g><g class="cls-9"><rect class="cls-10" x="89.5" width="54.79" height="57.41"/></g><g class="cls-11"><rect class="cls-12" x="13.5" y="14.89" width="28.91" height="30.37"/></g><g class="cls-13"><rect class="cls-12" x="60.9" y="14.76" width="24.67" height="30.49"/></g><g class="cls-14"><rect class="cls-12" x="104.52" y="14.89" width="24.55" height="30.37"/></g><g class="cls-15"><rect class="cls-12" x="14.31" y="56.39" width="18.37" height="20.13"/></g><g class="cls-16"><rect class="cls-12" x="31.99" y="56.53" width="19.13" height="19.84"/></g><g class="cls-17"><rect class="cls-12" x="51.07" y="56.53" width="15.11" height="19.84"/></g><g class="cls-18"><rect class="cls-12" x="66.02" y="56.53" width="15.11" height="19.84"/></g><g class="cls-19"><rect class="cls-12" x="81.43" y="56.53" width="15.37" height="19.84"/></g><g class="cls-20"><rect class="cls-12" x="97.55" y="56.48" width="17.08" height="19.9"/></g><g class="cls-21"><rect class="cls-12" x="112.44" y="56.53" width="18.14" height="19.84"/></g><g class="cls-22"><g class="cls-23"><g class="cls-24"><g class="cls-25"><g class="cls-24"><rect class="cls-12" x="8.85" y="81.78" width="14.46" height="14.74"/></g></g></g></g></g><g class="cls-26"><rect class="cls-12" x="16.74" y="81.87" width="12.6" height="14.55"/></g><g class="cls-27"><rect class="cls-12" x="26.89" y="81.8" width="14.03" height="14.7"/></g><g class="cls-28"><rect class="cls-12" x="34.49" y="81.84" width="13.69" height="14.58"/></g><g class="cls-29"><rect class="cls-12" x="41.43" y="81.87" width="12.67" height="14.55"/></g><g class="cls-30"><rect class="cls-12" x="47.24" y="81.87" width="14.49" height="14.55"/></g><g class="cls-31"><rect class="cls-12" x="53.73" y="81.87" width="13.23" height="14.55"/></g><g class="cls-32"><rect class="cls-12" x="60.14" y="81.87" width="12.67" height="14.55"/></g><g class="cls-33"><rect class="cls-12" x="66.36" y="81.84" width="13.69" height="14.58"/></g><g class="cls-34"><rect class="cls-12" x="77.12" y="81.87" width="14.46" height="14.55"/></g><g class="cls-35"><rect class="cls-12" x="84.82" y="81.87" width="11.26" height="14.55"/></g><g class="cls-36"><rect class="cls-12" x="89.56" y="81.84" width="13.24" height="14.64"/></g><g class="cls-37"><rect class="cls-12" x="95.65" y="81.87" width="13.23" height="14.55"/></g><g class="cls-38"><rect class="cls-12" x="101.75" y="81.68" width="14.46" height="14.74"/></g><g class="cls-39"><rect class="cls-12" x="109.64" y="81.74" width="13.69" height="14.58"/></g><g class="cls-40"><rect class="cls-12" x="116.57" y="81.78" width="11.26" height="14.55"/></g><g class="cls-41"><rect class="cls-12" x="121.05" y="81.78" width="14.49" height="14.55"/></g></g></g></svg>